<mxfile host="app.diagrams.net" agent="Mozilla/5.0 (Macintosh; Intel Mac OS X 10_15_7) AppleWebKit/537.36 (KHTML, like Gecko) Chrome/130.0.0.0 Safari/537.36" version="24.7.12">
  <diagram name="Page-1" id="N7Y7onsEhSW7svu7WFgK">
    <mxGraphModel dx="986" dy="789" grid="1" gridSize="10" guides="1" tooltips="1" connect="1" arrows="1" fold="1" page="1" pageScale="1" pageWidth="827" pageHeight="1169" math="0" shadow="0">
      <root>
        <mxCell id="0" />
        <mxCell id="1" parent="0" />
        <mxCell id="IppyFY_8jDfmEywMOPqL-3" style="edgeStyle=orthogonalEdgeStyle;rounded=0;orthogonalLoop=1;jettySize=auto;html=1;" edge="1" parent="1" source="IppyFY_8jDfmEywMOPqL-1" target="IppyFY_8jDfmEywMOPqL-2">
          <mxGeometry relative="1" as="geometry" />
        </mxCell>
        <UserObject label="kekw.swell.store" id="IppyFY_8jDfmEywMOPqL-1">
          <mxCell style="image;aspect=fixed;html=1;points=[];align=center;fontSize=12;image=img/lib/azure2/networking/DNS_Zones.svg;" vertex="1" parent="1">
            <mxGeometry x="50" y="120" width="64" height="64" as="geometry" />
          </mxCell>
        </UserObject>
        <mxCell id="IppyFY_8jDfmEywMOPqL-5" style="edgeStyle=orthogonalEdgeStyle;rounded=0;orthogonalLoop=1;jettySize=auto;html=1;" edge="1" parent="1" source="IppyFY_8jDfmEywMOPqL-2" target="IppyFY_8jDfmEywMOPqL-4">
          <mxGeometry relative="1" as="geometry" />
        </mxCell>
        <UserObject label="admin-aws-uswest1-swell-prod-1.swell.store" id="IppyFY_8jDfmEywMOPqL-2">
          <mxCell style="image;aspect=fixed;html=1;points=[];align=center;fontSize=12;image=img/lib/azure2/networking/DNS_Zones.svg;" vertex="1" parent="1">
            <mxGeometry x="260" y="120" width="64" height="64" as="geometry" />
          </mxCell>
        </UserObject>
        <UserObject label="a5d6397bbb51d4d179f2110e68901f20-446a250011806252.elb.us-west-1.amazonaws.com" id="IppyFY_8jDfmEywMOPqL-4">
          <mxCell style="sketch=0;outlineConnect=0;fontColor=#232F3E;gradientColor=none;fillColor=#8C4FFF;strokeColor=none;dashed=0;verticalLabelPosition=bottom;verticalAlign=top;align=center;html=1;fontSize=12;fontStyle=0;aspect=fixed;pointerEvents=1;shape=mxgraph.aws4.network_load_balancer;" vertex="1" parent="1">
            <mxGeometry x="620" y="220" width="78" height="78" as="geometry" />
          </mxCell>
        </UserObject>
        <mxCell id="IppyFY_8jDfmEywMOPqL-9" style="edgeStyle=orthogonalEdgeStyle;rounded=0;orthogonalLoop=1;jettySize=auto;html=1;" edge="1" parent="1" source="IppyFY_8jDfmEywMOPqL-6" target="IppyFY_8jDfmEywMOPqL-4">
          <mxGeometry relative="1" as="geometry" />
        </mxCell>
        <UserObject label="api-aws-uswest1-swell-prod-1.schema.io" id="IppyFY_8jDfmEywMOPqL-6">
          <mxCell style="image;aspect=fixed;html=1;points=[];align=center;fontSize=12;image=img/lib/azure2/networking/DNS_Zones.svg;" vertex="1" parent="1">
            <mxGeometry x="260" y="390" width="64" height="64" as="geometry" />
          </mxCell>
        </UserObject>
        <mxCell id="IppyFY_8jDfmEywMOPqL-8" style="edgeStyle=orthogonalEdgeStyle;rounded=0;orthogonalLoop=1;jettySize=auto;html=1;" edge="1" parent="1" source="IppyFY_8jDfmEywMOPqL-7" target="IppyFY_8jDfmEywMOPqL-6">
          <mxGeometry relative="1" as="geometry" />
        </mxCell>
        <UserObject label="api.schema.io" id="IppyFY_8jDfmEywMOPqL-7">
          <mxCell style="image;aspect=fixed;html=1;points=[];align=center;fontSize=12;image=img/lib/azure2/networking/DNS_Zones.svg;" vertex="1" parent="1">
            <mxGeometry x="50" y="320" width="64" height="64" as="geometry" />
          </mxCell>
        </UserObject>
        <UserObject label="api.swell.store" id="IppyFY_8jDfmEywMOPqL-11">
          <mxCell style="image;aspect=fixed;html=1;points=[];align=center;fontSize=12;image=img/lib/azure2/networking/DNS_Zones.svg;" vertex="1" parent="1">
            <mxGeometry x="50" y="500" width="64" height="64" as="geometry" />
          </mxCell>
        </UserObject>
        <mxCell id="IppyFY_8jDfmEywMOPqL-12" style="edgeStyle=orthogonalEdgeStyle;rounded=0;orthogonalLoop=1;jettySize=auto;html=1;entryX=0.469;entryY=0.953;entryDx=0;entryDy=0;entryPerimeter=0;" edge="1" parent="1" source="IppyFY_8jDfmEywMOPqL-11" target="IppyFY_8jDfmEywMOPqL-6">
          <mxGeometry relative="1" as="geometry" />
        </mxCell>
      </root>
    </mxGraphModel>
  </diagram>
</mxfile>
